<svg xmlns="http://www.w3.org/2000/svg" width="682.67" height="682.67" version="1.0" viewBox="0 0 512 512">
  <path d="M153 41.5c-30 6.1-54.2 29.1-62.1 59-2.9 11.1-2.9 28.8 0 40 6.1 23.4 21.9 43.1 42.7 53.1 21.4 10.3 47.6 10.3 68.8-.1 20.9-10.2 36.7-29.7 42.7-53 3-11.5 3-28.1 0-39.5-10.8-41.6-51.4-67.8-92.1-59.5zm146.1 144.2c-1.6 1.3-3 5.1-5.2 13.8-1.6 6.6-3.2 12.6-3.7 13.3-.4.7-4.2 2.8-8.4 4.6l-7.7 3.3-11.3-6.8c-7.1-4.3-12.4-6.9-14.3-6.9-2.5 0-5.8 2.8-22.2 19.3-15.9 15.9-19.3 19.8-19.3 22.1 0 1.7 2.7 7.3 6.9 14.2l6.8 11.5-3.3 7.7c-1.8 4.2-3.9 8-4.6 8.4-.7.5-6.7 2.1-13.3 3.7-8.7 2.2-12.5 3.6-13.8 5.2-1.5 1.9-1.7 4.9-1.7 28.9s.2 27 1.7 28.9c1.3 1.6 5.1 3 13.8 5.2 6.6 1.6 12.6 3.2 13.3 3.7.7.4 2.8 4.2 4.6 8.4l3.3 7.7-6.8 11.5c-4.2 6.9-6.9 12.5-6.9 14.2 0 2.3 3.4 6.2 19.3 22.1 16.4 16.5 19.7 19.3 22.2 19.3 1.9 0 7.2-2.6 14.3-6.9l11.3-6.8 7.7 3.3c4.2 1.8 8 3.9 8.4 4.6.5.7 2.1 6.7 3.7 13.3 2.2 8.7 3.6 12.5 5.2 13.7 1.9 1.6 4.9 1.8 28.9 1.8s27-.2 28.9-1.7c1.6-1.3 3-5.1 5.2-13.8 1.6-6.6 3.2-12.6 3.7-13.3.4-.7 4.2-2.8 8.4-4.6l7.7-3.3 11.5 6.8c6.9 4.2 12.5 6.9 14.2 6.9 2.3 0 6.2-3.4 22.1-19.3 15.9-15.9 19.3-19.8 19.3-22.1 0-1.7-2.7-7.3-6.9-14.2l-6.8-11.5 3.3-7.7c1.8-4.2 3.9-8 4.6-8.4.7-.5 6.7-2.1 13.3-3.7 8.7-2.2 12.5-3.6 13.8-5.2 1.5-1.9 1.7-4.9 1.7-28.9s-.2-27-1.7-28.9c-1.3-1.6-5.1-3-13.8-5.2-6.6-1.6-12.6-3.2-13.3-3.7-.7-.4-2.8-4.2-4.6-8.4l-3.3-7.7 6.8-11.5c4.2-6.9 6.9-12.5 6.9-14.2 0-2.3-3.4-6.2-19.3-22.1-15.9-15.9-19.8-19.3-22.1-19.3-1.7 0-7.3 2.7-14.2 6.9l-11.5 6.8-7.7-3.3c-4.2-1.8-8-3.9-8.4-4.6-.5-.7-2.1-6.7-3.7-13.3-2.2-8.7-3.6-12.5-5.2-13.8-1.9-1.5-4.9-1.7-28.9-1.7s-27 .2-28.9 1.7zm42.4 79.8c21.6 4.5 40.9 22.3 47.8 44 1.8 5.7 2.2 9.3 2.2 19-.1 10.4-.5 13-2.7 19.3-3.7 10.4-8.3 17.6-15.8 25.2a65.64 65.64 0 0 1-26.5 16.3c-5.7 1.8-9.3 2.2-19 2.2-10.4-.1-13-.5-19.3-2.7-10.5-3.8-17.6-8.3-25.7-16.3-19.3-19.2-23.9-48.4-11.5-73.1a63.9 63.9 0 0 1 70.5-33.9z"/>
  <path d="M105 217.6c-8 1.3-19.2 3.1-25 3.9-18.7 2.7-29.5 10-36.3 24.3l-3.2 6.7-.3 107.3L40 467l2.4 2.5 2.5 2.5H163c64.9 0 118-.3 118-.6 0-1.5-4.2-17-4.8-17.6-.4-.4-4.1 1.4-8.2 3.9-12.8 7.8-20.3 9.1-29 5.2-6.3-2.9-42.1-38.5-45.5-45.3-4.5-9-3.3-16.4 4.8-29.6 2.5-4.1 4.3-7.8 3.9-8.2-.4-.3-5.2-1.8-10.6-3.2-5.8-1.6-11.4-3.7-13.3-5.2-6.3-4.8-10.3-12.1-10.3-18.8 0-1.8-1.4-7.6-3.1-13.1l-3.1-9.9 2.8-36.8c1.5-20.2 3.1-36.8 3.4-36.8.5 0 3 27.5 3 33.4 0 1.5.9 1 4.6-2.3 2.5-2.4 5.9-4.7 7.6-5.3l3.1-1.1-.7-12.3-.7-12.3 2.9-1.5c1.6-.8 3.2-2.3 3.6-3.1.3-.9.6-8.2.6-16.1 0-14.1-.1-14.6-2.5-16.9-2.4-2.5-2.6-2.5-21.5-2.5s-19.1 0-21.5 2.5c-2.4 2.3-2.5 2.8-2.5 16.9 0 7.9.3 15.2.6 16.1.4.8 2 2.3 3.6 3.1l3 1.6-.7 11.1c-1.5 23.4-.7 24.3-12.7-13.8-6.1-19.1-11.5-34.7-12.5-35.6-2.9-2.7-5-2.8-20.3-.3zm71 18.4v4h-16v-8h16v4z"/>
</svg>
